<svg width="19" height="19" fill="none" xmlns="http://www.w3.org/2000/svg"><path d="M19 9.5a9.5 9.5 0 1 1-19 0 9.5 9.5 0 0 1 19 0Z" fill="#7DB54F"/><path d="M5.63 12.26h1.4V7.42l.1-.59-.4.47-1.1.79-.38-.51 2.2-1.7h.36v6.38h1.37V13H5.63v-.74Zm7.83-4.67c0 .35-.07.72-.2 1.09a10.88 10.88 0 0 1-1.21 2.21c-.26.35-.52.69-.78 1.01l-.49.43v.04l.64-.11h2.18V13H9.62v-.29a33.15 33.15 0 0 0 1.17-1.32 15.09 15.09 0 0 0 1.25-1.83c.18-.32.32-.64.43-.95.1-.31.16-.61.16-.89 0-.33-.1-.6-.28-.81-.19-.22-.47-.33-.85-.33-.25 0-.5.05-.74.16-.24.1-.45.22-.62.35l-.33-.57c.23-.2.51-.36.83-.47.32-.11.66-.17 1.03-.17.29 0 .54.04.76.13a1.5 1.5 0 0 1 .91.9c.08.2.12.43.12.68Z" fill="#fff"/></svg>